<?xml version="1.0" encoding="UTF-8"?>
<svg width="25px" height="22px" viewBox="0 0 25 22" version="1.1" xmlns="http://www.w3.org/2000/svg" xmlns:xlink="http://www.w3.org/1999/xlink">
    <!-- Generator: Sketch 53.2 (72643) - https://sketchapp.com -->
    <title>basket</title>
    <desc>Created with Sketch.</desc>
    <g id="Symbols" stroke="none" stroke-width="1" fill="none" fill-rule="evenodd">
        <g id="mobile-Nav" transform="translate(-272.000000, -20.000000)" fill="#FFFFFF" fill-rule="nonzero">
            <g id="basket" transform="translate(272.000000, 20.000000)">
                <path d="M23.8048582,9.29157748 L15.7695347,9.29157748 L12.4797546,1.62585702 C12.3230031,1.26011184 11.9980002,1.00015221 11.6149967,0.934261449 C11.6149967,0.934261449 6.25644764,0.0388163468 6.10919629,0.0164237846 C5.0611867,-0.146501409 4.9189354,0.938894393 5.18643785,1.67115692 L8.263466,9.29157748 L1.16290104,9.29157748 C0.0276406547,9.29157748 -0.0826103539,10.1818749 0.0386407554,10.7450349 L2.34591186,21.0783015 C2.46641297,21.6177821 2.93266723,22 3.47042215,22 L21.4975871,22 C22.035092,22 22.5015963,21.6177821 22.6218474,21.0783015 L24.9291185,10.7450349 C25.0078692,10.3929312 25.2773717,9.29157748 23.8048582,9.29157748 Z M21.1950843,10.2971837 L20.1040743,15.2631848 L17.4915504,15.2631848 L18.1435564,10.2971837 L21.1950843,10.2971837 L21.1950843,10.2971837 Z M17.1582974,10.2971837 L16.5062914,15.2631848 L12.9882592,15.2631848 L12.9882592,10.2966689 L17.1582974,10.2971837 Z M6.09569617,1.30335265 C6.09569617,1.30335265 5.93744472,0.97621533 6.29019795,1.03670099 C6.64295117,1.09744403 11.4542452,1.92596883 11.4542452,1.92596883 C11.5129957,1.93626426 11.5624962,1.97564428 11.5867464,2.03201177 L14.7022749,9.29183487 L9.32222569,9.29183487 L6.09569617,1.30335265 Z M6.85645313,10.2971837 L7.50845909,15.2631848 L4.89568519,15.2631848 L3.80467521,10.2971837 L6.85645313,10.2971837 L6.85645313,10.2971837 Z M0.941149012,10.2971837 L2.80366605,10.2971837 L3.89467603,15.2631848 L2.04965915,15.2631848 L0.941149012,10.2971837 Z M3.47042215,20.9949086 C3.38717139,20.9949086 3.31617074,20.936482 3.29767057,20.853089 L2.27416121,16.2685336 L4.11567805,16.2685336 L5.15393755,20.9949086 L3.47042215,20.9949086 Z M6.15519671,20.9949086 L5.11693721,16.2685336 L7.6407103,16.2685336 L8.26096598,20.9949086 L6.15519671,20.9949086 Z M12.0115003,20.9949086 L9.24647499,20.9949086 L8.62596932,16.2685336 L12.0117503,16.2685336 L12.0117503,20.9949086 L12.0115003,20.9949086 Z M12.0115003,15.2631848 L8.49396811,15.2631848 L7.84196214,10.2971837 L8.67096973,10.2971837 L9.60172824,12.5922926 C9.73072942,12.9104214 10.0862327,12.9289532 10.2404841,12.8625477 C10.4894864,12.7557326 10.6069874,12.4610259 10.5032365,12.204927 L9.72922941,10.2966689 L12.0115003,10.2966689 L12.0115003,15.2631848 Z M12.9882592,20.9949086 L12.9882592,16.2685336 L16.3740402,16.2685336 L15.7537845,20.9949086 L12.9882592,20.9949086 Z M16.7387935,20.9949086 L17.3592992,16.2685336 L19.8833223,16.2685336 L18.8448128,20.9949086 L16.7387935,20.9949086 Z M21.6703387,20.853089 C21.6518385,20.936482 21.5808378,20.9949086 21.4978371,20.9949086 L19.846572,20.9949086 L20.8848315,16.2685336 L22.693848,16.2685336 L21.6703387,20.853089 Z M22.9186001,15.2631848 L21.1053335,15.2631848 L22.1963435,10.2971837 L24.0321103,10.2971837 L22.9186001,15.2631848 Z" id="Shape"></path>
            </g>
        </g>
    </g>
</svg>