<?xml version="1.0" encoding="UTF-8"?>
<svg width="72px" height="27px" viewBox="0 0 72 27" version="1.1" xmlns="http://www.w3.org/2000/svg" xmlns:xlink="http://www.w3.org/1999/xlink">
    <!-- Generator: Sketch 53.2 (72643) - https://sketchapp.com -->
    <title>logo</title>
    <desc>Created with Sketch.</desc>
    <defs>
        <polygon id="path-1" points="0.0130188679 0.127815126 22.8897099 0.127815126 22.8897099 25.9868908 0.0130188679 25.9868908"></polygon>
    </defs>
    <g id="Symbols" stroke="none" stroke-width="1" fill="none" fill-rule="evenodd">
        <g id="mobile-Nav" transform="translate(-120.000000, -16.000000)">
            <g id="logo" transform="translate(120.000000, 16.000000)">
                <g id="Group-8">
                    <mask id="mask-2" fill="white">
                        <use xlink:href="#path-1"></use>
                    </mask>
                    <g id="Clip-2"></g>
                    <path d="M11.442283,8.83737815 C12.0439717,8.83737815 12.5397736,8.52297479 12.6066038,8.11527731 L13.201566,1.34653782 C13.201566,0.677529412 12.4230377,0.127815126 11.4440189,0.127815126 C10.4665189,0.127815126 9.68950943,0.677529412 9.68950943,1.34653782 L10.2829528,8.11527731 C10.3486981,8.52297479 10.844717,8.83737815 11.4444528,8.83737815 L11.442283,8.83737815" id="Fill-1" fill="#F3B53D" mask="url(#mask-2)"></path>
                    <path d="M7.80893396,10.9521176 C8.11075472,10.4279664 8.08753774,9.83805042 7.76966038,9.57630252 L2.24445283,5.67455462 C1.67075472,5.33961345 0.808688679,5.7425042 0.319396226,6.59613445 C-0.170764151,7.44867227 -0.0835377358,8.40127731 0.490160377,8.73556303 L6.60729245,11.6038655 C6.99026415,11.7474118 7.51101887,11.4725546 7.81110377,10.9486218 L7.80893396,10.9521176" id="Fill-3" fill="#F3B53D" mask="url(#mask-2)"></path>
                    <path d="M15.0782358,10.9486218 C15.3791887,11.4725546 15.8984245,11.7474118 16.2813962,11.6038655 L22.3993962,8.73556303 C22.9756981,8.40127731 23.0581509,7.44867227 22.5712453,6.59613445 C22.080217,5.7425042 21.217283,5.33961345 20.6444528,5.67455462 L15.1192453,9.57630252 C14.8028868,9.83805042 14.7796698,10.4279664 15.0804057,10.9521176 L15.0782358,10.9486218" id="Fill-4" fill="#F3B53D" mask="url(#mask-2)"></path>
                    <path d="M11.442283,17.2928403 C12.0439717,17.2928403 12.5397736,17.6059328 12.6066038,18.0131933 L13.201566,24.7814958 C13.201566,25.4515966 12.4230377,26 11.4440189,26 C10.4665189,26 9.68950943,25.4515966 9.68950943,24.7814958 L10.2829528,18.0131933 C10.3486981,17.6059328 10.844717,17.2928403 11.4444528,17.2928403 L11.442283,17.2928403" id="Fill-5" fill="#F3B53D" mask="url(#mask-2)"></path>
                    <path d="M15.0782358,15.1787563 C15.3791887,14.6530756 15.8984245,14.3804034 16.2813962,14.5256975 L22.3993962,17.3913782 C22.9756981,17.7269748 23.0581509,18.6800168 22.5712453,19.5332101 C22.080217,20.384 21.217283,20.7886387 20.6444528,20.4545714 L15.1192453,16.5558824 C14.8028868,16.2912941 14.7796698,15.7015966 15.0804057,15.1774454 L15.0782358,15.1787563" id="Fill-6" fill="#F3B53D" mask="url(#mask-2)"></path>
                    <path d="M7.80893396,15.1774454 C8.11075472,15.7015966 8.08753774,16.2912941 7.76966038,16.5558824 L2.24445283,20.4545714 C1.67075472,20.7886387 0.808688679,20.384 0.319396226,19.5332101 C-0.170764151,18.6800168 -0.0835377358,17.7269748 0.490160377,17.3913782 L6.60729245,14.5256975 C6.99026415,14.3804034 7.51101887,14.6530756 7.81153774,15.1787563 L7.80893396,15.1774454" id="Fill-7" fill="#F3B53D" mask="url(#mask-2)"></path>
                </g>
                <path d="M14.4274448,26.4773707 L14.4805468,26.4773707 C14.5433754,26.4773707 14.5933228,26.4560884 14.5933228,26.4043642 C14.5933228,26.3588362 14.5607256,26.328125 14.4894848,26.328125 C14.4600421,26.328125 14.4392744,26.3310884 14.4274448,26.3343211 L14.4274448,26.4773707 Z M14.4245531,26.7570043 L14.3117771,26.7570043 L14.3117771,26.2613147 C14.356204,26.2521552 14.4185068,26.2429957 14.4984227,26.2429957 C14.5904311,26.2429957 14.6319664,26.2583513 14.6674553,26.282597 C14.6942692,26.3041487 14.7152997,26.3434806 14.7152997,26.3890086 C14.7152997,26.4469289 14.6735016,26.4894935 14.6143533,26.5075431 L14.6143533,26.5137392 C14.6616719,26.5288254 14.6882229,26.5684267 14.7032072,26.6352371 C14.7181914,26.7112069 14.7271293,26.7419181 14.738959,26.7570043 L14.617245,26.7570043 C14.6022608,26.7386853 14.5933228,26.6961207 14.5783386,26.6384698 C14.5696635,26.5837823 14.5402208,26.5592672 14.477918,26.5592672 L14.4245531,26.5592672 L14.4245531,26.7570043 Z M14.4984227,26.1004849 C14.2849632,26.1004849 14.1248686,26.2796336 14.1248686,26.4983836 C14.1248686,26.7203664 14.2849632,26.8968211 14.5042061,26.8968211 C14.7181914,26.8997845 14.8751314,26.7203664 14.8751314,26.4983836 C14.8751314,26.2796336 14.7181914,26.1004849 14.5013144,26.1004849 L14.4984227,26.1004849 Z M14.5042061,26 C14.7833859,26 15,26.2219828 15,26.4983836 C15,26.78125 14.7833859,27 14.5013144,27 C14.2226604,27 14,26.78125 14,26.4983836 C14,26.2219828 14.2226604,26 14.5013144,26 L14.5042061,26 L14.5042061,26 Z" id="Fill-9" fill="#F3B53D"></path>
                <path d="M33,21.3248945 L33,6.42756681 C33,6.20253165 33.1819242,6 33.43207,6 L38.7760933,6 C41.5731778,6 43.8699708,8.25035162 43.8699708,10.9732771 C43.8699708,13.7637131 41.5731778,16.0365682 38.7988338,16.0365682 L35.9562682,16.0365682 L35.9562682,21.3248945 C35.9562682,21.5499297 35.7516035,21.7524613 35.5241982,21.7524613 L33.43207,21.7524613 C33.1819242,21.7524613 33,21.5499297 33,21.3248945 Z M35.9562682,13.2911392 L38.6851312,13.2911392 C39.9586005,13.2911392 40.9364431,12.278481 40.9364431,10.9507736 C40.9364431,9.71308017 39.9586005,8.76793249 38.6851312,8.76793249 L35.9562682,8.76793249 L35.9562682,13.2911392 Z M44.3172012,16.5541491 C44.3172012,13.628692 46.5002915,11.1308017 49.6157434,11.1308017 C52.3446064,11.1308017 54.4367346,13.1336146 54.4367346,15.9465541 C54.4367346,16.1040788 54.4139941,16.464135 54.3912536,16.6216596 C54.3685131,16.8917018 54.1183673,17.0942335 53.8909621,17.0942335 L47.1597668,17.0942335 C47.1825073,18.3769339 48.2513119,19.5021097 49.7749271,19.5021097 C50.8209912,19.5021097 51.548688,19.1195499 52.026239,18.7369902 C52.2763848,18.5344585 52.5492711,18.511955 52.7084548,18.7369902 L53.5953352,19.907173 C53.7772594,20.1097046 53.8,20.3572433 53.5498542,20.5822785 C52.6402332,21.347398 51.3440233,22 49.6384839,22 C46.5002915,22 44.3172012,19.5246132 44.3172012,16.5541491 Z M47.3189504,15.2489451 L51.5714285,15.2489451 C51.5259475,14.2362869 50.7072886,13.4486639 49.5475218,13.4486639 C48.2740525,13.4486639 47.4553936,14.2137834 47.3189504,15.2489451 Z M56.9760933,13.8762307 L55.9527697,13.8762307 C55.6798834,13.8762307 55.4752187,13.628692 55.4752187,13.3811533 L55.4752187,11.8509142 C55.4752187,11.5583685 55.6798834,11.3558368 55.9527697,11.3558368 L56.9760933,11.3558368 L56.9760933,8.47538678 C56.9760933,8.20534459 57.2262391,7.98030942 57.4763848,7.98030942 L59.3411079,7.98030942 C59.6139942,7.98030942 59.8186589,8.20534459 59.8186589,8.47538678 L59.8186589,11.3558368 L62.2746355,11.3558368 C62.5475218,11.3558368 62.7749271,11.5583685 62.7749271,11.8509142 L62.7749271,13.3811533 C62.7749271,13.628692 62.5475218,13.8762307 62.2746355,13.8762307 L59.8186589,13.8762307 L59.8186589,18.0618847 C59.8186589,19.0745429 60.2734694,19.4796062 60.9329446,19.4796062 C61.3877551,19.4796062 62.0017493,19.3445851 62.2746355,19.2320675 C62.5702624,19.1195499 62.8204081,19.254571 62.8658892,19.5021097 L63.161516,20.8523207 C63.2297376,21.1223629 63.116035,21.3248945 62.8658892,21.4599156 C62.5020408,21.6624473 61.5469388,22 60.4553936,22 C58.3177843,22 56.9760933,20.6272855 56.9760933,18.2644163 L56.9760933,13.8762307 Z M67.9521866,22 C66.2011662,22 65.109621,21.4599156 64.5183674,21.0548523 C64.3819242,20.9648383 64.2682216,20.7172996 64.3819242,20.4922644 L65.06414,19.1420534 C65.1778426,18.8945148 65.4279884,18.8045007 65.6781341,18.9620253 C66.1556852,19.254571 66.9061225,19.6371308 67.9976677,19.6371308 C68.793586,19.6371308 69.1574344,19.3445851 69.1574344,18.8945148 C69.1574344,18.4219409 68.5661808,17.9943741 67.1790088,17.4542897 C65.1551021,16.6891702 64.2454811,15.7440225 64.2454811,14.1687764 C64.2454811,12.5935302 65.4507289,11.1308017 68.0204082,11.1308017 C69.5667639,11.1308017 70.5673469,11.535865 71.1358601,11.8959212 C71.3632653,12.0759494 71.4997085,12.3459916 71.3632653,12.6160338 L70.7720117,13.8087201 C70.612828,14.0562588 70.3399417,14.1012658 70.1125365,14.0112518 C69.6122449,13.7862166 68.8845481,13.4936709 68.0204082,13.4936709 C67.3154519,13.4936709 67.0198251,13.8312236 67.0198251,14.1687764 C67.0198251,14.6413502 67.5428572,14.8888889 68.5206997,15.2939522 C70.5446064,16.1040788 72,16.8241913 72,18.8945148 C72,20.5372714 70.5900875,22 67.9521866,22 Z" id="Pets" fill="#FFFFFF" fill-rule="nonzero"></path>
            </g>
        </g>
    </g>
</svg>